<svg width="37" height="37" viewBox="0 0 37 37" fill="none" xmlns="http://www.w3.org/2000/svg">
<path d="M15.0559 1.42661C17.2611 0.513167 19.7389 0.513169 21.9442 1.42661L28.1373 3.99191C30.3426 4.90535 32.0946 6.65742 33.0081 8.86267L35.5734 15.0559C36.4868 17.2611 36.4868 19.7389 35.5734 21.9442L33.0081 28.1373C32.0946 30.3426 30.3426 32.0946 28.1373 33.0081L21.9442 35.5734C19.7389 36.4868 17.2611 36.4868 15.0558 35.5734L8.86267 33.0081C6.65742 32.0946 4.90536 30.3426 3.99191 28.1373L1.42662 21.9442C0.51317 19.7389 0.513169 17.2611 1.42661 15.0558L3.99191 8.86267C4.90536 6.65742 6.65742 4.90536 8.86268 3.99191L15.0559 1.42661Z" fill="#0DADF1"/>
<path d="M15.0559 1.42661C17.2611 0.513167 19.7389 0.513169 21.9442 1.42661L28.1373 3.99191C30.3426 4.90535 32.0946 6.65742 33.0081 8.86267L35.5734 15.0559C36.4868 17.2611 36.4868 19.7389 35.5734 21.9442L33.0081 28.1373C32.0946 30.3426 30.3426 32.0946 28.1373 33.0081L21.9442 35.5734C19.7389 36.4868 17.2611 36.4868 15.0558 35.5734L8.86267 33.0081C6.65742 32.0946 4.90536 30.3426 3.99191 28.1373L1.42662 21.9442C0.51317 19.7389 0.513169 17.2611 1.42661 15.0558L3.99191 8.86267C4.90536 6.65742 6.65742 4.90536 8.86268 3.99191L15.0559 1.42661Z" fill="#0DADF1"/>
<path d="M15.0559 1.42661C17.2611 0.513167 19.7389 0.513169 21.9442 1.42661L28.1373 3.99191C30.3426 4.90535 32.0946 6.65742 33.0081 8.86267L35.5734 15.0559C36.4868 17.2611 36.4868 19.7389 35.5734 21.9442L33.0081 28.1373C32.0946 30.3426 30.3426 32.0946 28.1373 33.0081L21.9442 35.5734C19.7389 36.4868 17.2611 36.4868 15.0558 35.5734L8.86267 33.0081C6.65742 32.0946 4.90536 30.3426 3.99191 28.1373L1.42662 21.9442C0.51317 19.7389 0.513169 17.2611 1.42661 15.0558L3.99191 8.86267C4.90536 6.65742 6.65742 4.90536 8.86268 3.99191L15.0559 1.42661Z" fill="#05044D" fill-opacity="0.8"/>
<path d="M15.0557 2.54771C17.261 1.63426 19.7388 1.63426 21.944 2.54771L27.3444 4.78461C29.5496 5.69805 31.3017 7.45012 32.2152 9.65537L34.4521 15.0557C35.3655 17.261 35.3655 19.7388 34.4521 21.944L32.2152 27.3444C31.3017 29.5496 29.5496 31.3017 27.3444 32.2152L21.944 34.4521C19.7388 35.3655 17.261 35.3655 15.0557 34.4521L9.65537 32.2152C7.45012 31.3017 5.69805 29.5496 4.78461 27.3444L2.54771 21.944C1.63426 19.7388 1.63426 17.261 2.54771 15.0557L4.78461 9.65537C5.69805 7.45012 7.45012 5.69805 9.65537 4.78461L15.0557 2.54771Z" fill="#E0EDF2"/>
<path d="M15.0557 2.54771C17.261 1.63426 19.7388 1.63426 21.944 2.54771L27.3444 4.78461C29.5496 5.69805 31.3017 7.45012 32.2152 9.65537L34.4521 15.0557C35.3655 17.261 35.3655 19.7388 34.4521 21.944L32.2152 27.3444C31.3017 29.5496 29.5496 31.3017 27.3444 32.2152L21.944 34.4521C19.7388 35.3655 17.261 35.3655 15.0557 34.4521L9.65537 32.2152C7.45012 31.3017 5.69805 29.5496 4.78461 27.3444L2.54771 21.944C1.63426 19.7388 1.63426 17.261 2.54771 15.0557L4.78461 9.65537C5.69805 7.45012 7.45012 5.69805 9.65537 4.78461L15.0557 2.54771Z" fill="#D0E2EA"/>
<path d="M15.0557 2.54771C17.261 1.63426 19.7388 1.63426 21.944 2.54771L27.3444 4.78461C29.5496 5.69805 31.3017 7.45012 32.2152 9.65537L34.4521 15.0557C35.3655 17.261 35.3655 19.7388 34.4521 21.944L32.2152 27.3444C31.3017 29.5496 29.5496 31.3017 27.3444 32.2152L21.944 34.4521C19.7388 35.3655 17.261 35.3655 15.0557 34.4521L9.65537 32.2152C7.45012 31.3017 5.69805 29.5496 4.78461 27.3444L2.54771 21.944C1.63426 19.7388 1.63426 17.261 2.54771 15.0557L4.78461 9.65537C5.69805 7.45012 7.45012 5.69805 9.65537 4.78461L15.0557 2.54771Z" fill="#DBEAFF"/>
<ellipse rx="0.239198" ry="0.303082" transform="matrix(0.993935 -0.109968 0.109498 0.993987 8.88934 12.6497)" fill="#05044D"/>
<path d="M9.96072 12.5813C9.55722 11.9407 8.05002 11.6085 7.69399 12.5813C7.24301 14.8948 8.38231 18.0269 8.38231 18.0269C8.53659 18.3947 10.3049 18.8218 11.6578 18.2761" stroke="#05044D" stroke-width="0.5" stroke-linejoin="round"/>
<path d="M7.7198 12.4762C7.47145 11.6229 6.91565 11.6822 6.91565 11.6822" stroke="#05044D" stroke-width="0.5" stroke-linejoin="round"/>
<path d="M21.2767 10.3529C21.4699 10.7457 20.5524 11.1302 20.0694 11.212C19.5865 10.8193 18.8219 10.6393 18.5 10.5984C18.7415 10.3529 19.8285 10.1237 20.0694 10.1074C20.5792 10.0729 21.0353 10.0665 21.2767 10.3529Z" stroke="#05044D" stroke-width="0.5" stroke-linejoin="round"/>
<path d="M35.318 17.3787C34.1967 17.659 29.8462 17.8638 28.946 15.72C28.0458 13.5762 27.5437 11.4407 27.1686 10.7355C28.1386 10.001 29.359 8.25686 27.7837 7.01569C26.9794 6.43521 25.0971 7.50031 24.8428 7.92852M18.3859 35.5708C19.1735 33.7655 17.3539 30.7148 16.2756 29.2103C13.8846 26.9537 13.8846 24.2739 14.3065 22.4403C14.7285 20.6068 13.7439 20.1837 12.7594 19.9016C9.84024 20.2838 8.68057 18.7733 8.39928 18.4912C8.25863 18.4912 7.86105 18.7156 7.43911 18.1514C6.42643 15.8947 6.70834 13.6067 6.98963 12.6665C6.90296 12.4926 6.82795 12.1931 6.87135 11.9675L7.1434 11.387C14.3065 5.05539 21.0577 6.64366 21.1983 6.50262C21.339 6.36158 22.0422 5.37429 23.3081 5.65637C24.3208 5.88204 24.1051 6.69068 23.8707 7.06679L24.3861 7.56808M25.2674 9.1733C25.5837 9.35446 25.5837 9.35446 25.5837 9.88303" stroke="#05044D" stroke-width="0.5" stroke-linejoin="round"/>
<circle cx="20.1062" cy="10.5759" r="0.4851" fill="#05044D"/>
<circle cx="20.1062" cy="10.5759" r="0.4851" fill="#05044D"/>
<rect x="20.1816" y="10.0908" width="0.20347" height="0.224303" rx="0.101735" fill="white"/>
<path d="M19.0605 9.29599C19.3832 9.143 20.2269 8.76055 20.8918 9.11751" stroke="#05044D" stroke-width="0.5" stroke-linejoin="round"/>
<path d="M25.4375 8.47905C26.9792 6.93731 28.5658 8.34637 26.9792 9.63536" stroke="#05044D" stroke-width="0.5" stroke-linejoin="round"/>
<path d="M8.87963 12.4595C8.72117 12.4948 8.51245 12.5891 8.48364 12.9896C8.69963 12.825 8.95162 12.825 8.95162 12.825" stroke="#05044D" stroke-width="0.5" stroke-linejoin="round"/>
<path d="M7.12834 12.0374C7.19109 12.0538 7.27375 12.0978 7.28516 12.2845C7.19962 12.2077 7.09982 12.2077 7.09982 12.2077" stroke="#05044D" stroke-width="0.5" stroke-linejoin="round"/>
<path opacity="0.6" d="M8.58491 12.7701C8.58999 12.7573 8.59037 12.7438 8.5906 12.7305C8.59062 12.7294 8.58894 12.7074 8.59182 12.7071C8.59614 12.7066 8.60471 12.7348 8.60544 12.7372C8.60803 12.7457 8.60968 12.7543 8.61126 12.763C8.61169 12.7653 8.61121 12.7721 8.61337 12.7741C8.61617 12.7768 8.64188 12.7511 8.64337 12.7497C8.65203 12.7412 8.66611 12.7307 8.66665 12.7191C8.66677 12.7166 8.66647 12.7195 8.66633 12.7202C8.66433 12.7302 8.66086 12.74 8.65808 12.7499C8.65418 12.7638 8.65138 12.7778 8.64772 12.7917C8.64747 12.7927 8.64327 12.8134 8.64094 12.8136C8.6403 12.8136 8.64049 12.8126 8.64043 12.8121C8.63987 12.8077 8.63998 12.8033 8.63966 12.7989C8.63818 12.7786 8.6351 12.7585 8.63109 12.7384C8.62709 12.7184 8.62227 12.6985 8.61619 12.6788C8.61265 12.6674 8.60942 12.6543 8.6032 12.6435C8.60132 12.6402 8.60405 12.6506 8.60487 12.6542C8.60988 12.6761 8.61442 12.6979 8.61753 12.72C8.61986 12.7366 8.62175 12.7866 8.62175 12.7699C8.62175 12.7625 8.62372 12.7556 8.62527 12.7483C8.62707 12.7398 8.62882 12.7313 8.63077 12.7229C8.63126 12.7208 8.63176 12.7146 8.63282 12.7166C8.63482 12.7204 8.63482 12.7259 8.63505 12.7298C8.63607 12.7463 8.63524 12.763 8.6339 12.7795C8.63368 12.7822 8.62568 12.8396 8.6215 12.8385C8.6193 12.838 8.61722 12.8304 8.61702 12.8298C8.61361 12.8205 8.61113 12.8109 8.60928 12.8012M8.60928 12.8012C8.60737 12.7913 8.60678 12.7814 8.60678 12.7713C8.60678 12.7575 8.60703 12.7989 8.60602 12.8127C8.60535 12.8218 8.60529 12.8324 8.60167 12.8412C8.60059 12.8438 8.59645 12.8269 8.59642 12.8268C8.59208 12.8063 8.59079 12.7855 8.59067 12.7648C8.59065 12.7617 8.58877 12.753 8.59092 12.7556C8.59436 12.7597 8.59447 12.7689 8.59527 12.7733C8.59938 12.7959 8.60103 12.8187 8.60103 12.8415C8.60103 12.8435 8.6007 12.8493 8.59962 12.8475C8.59613 12.8415 8.59464 12.8346 8.59265 12.8282C8.59183 12.8256 8.59096 12.823 8.59067 12.8203C8.5904 12.8179 8.59058 12.8252 8.59041 12.8276C8.58936 12.8425 8.61372 12.7866 8.60928 12.8012ZM8.60928 12.8012C8.60664 12.8099 8.57534 12.8713 8.57365 12.8669C8.56996 12.8573 8.56904 12.8466 8.56675 12.8367C8.56607 12.8337 8.56537 12.8307 8.56495 12.8278C8.56473 12.8261 8.56754 12.8345 8.56764 12.8348C8.5691 12.84 8.57047 12.8453 8.57097 12.8506C8.5716 12.8574 8.56987 12.8479 8.56982 12.8476C8.56789 12.8388 8.56398 12.8124 8.56764 12.8208" stroke="#05044D" stroke-width="0.5" stroke-linecap="round" stroke-linejoin="round"/>
<path d="M27.0706 16.2625C27.0706 16.2625 27.0503 18.4379 23.927 18.6176" stroke="#05044D" stroke-width="0.5" stroke-linejoin="round"/>
<path d="M24.106 7.28797C24.9469 7.00767 26.3484 5.60629 27.7499 7.00777" stroke="#05044D" stroke-width="0.5"/>
</svg>
