<svg width="35" height="35" viewBox="0 0 35 35" fill="none" xmlns="http://www.w3.org/2000/svg">
<path d="M14.0558 1.42661C16.2611 0.513168 18.7389 0.513168 20.9442 1.42661L26.4302 3.69902C28.6355 4.61246 30.3875 6.36453 31.301 8.56978L33.5734 14.0558C34.4868 16.2611 34.4868 18.7389 33.5734 20.9442L31.301 26.4302C30.3875 28.6355 28.6355 30.3875 26.4302 31.301L20.9442 33.5734C18.7389 34.4868 16.2611 34.4868 14.0558 33.5734L8.56978 31.301C6.36453 30.3875 4.61246 28.6355 3.69902 26.4302L1.42661 20.9442C0.513168 18.7389 0.513168 16.2611 1.42661 14.0558L3.69902 8.56978C4.61246 6.36453 6.36453 4.61246 8.56978 3.69902L14.0558 1.42661Z" fill="#0DADF1"/>
<path d="M14.0558 1.42661C16.2611 0.513168 18.7389 0.513168 20.9442 1.42661L26.4302 3.69902C28.6355 4.61246 30.3875 6.36453 31.301 8.56978L33.5734 14.0558C34.4868 16.2611 34.4868 18.7389 33.5734 20.9442L31.301 26.4302C30.3875 28.6355 28.6355 30.3875 26.4302 31.301L20.9442 33.5734C18.7389 34.4868 16.2611 34.4868 14.0558 33.5734L8.56978 31.301C6.36453 30.3875 4.61246 28.6355 3.69902 26.4302L1.42661 20.9442C0.513168 18.7389 0.513168 16.2611 1.42661 14.0558L3.69902 8.56978C4.61246 6.36453 6.36453 4.61246 8.56978 3.69902L14.0558 1.42661Z" fill="#0DADF1"/>
<path d="M14.0558 1.42661C16.2611 0.513168 18.7389 0.513168 20.9442 1.42661L26.4302 3.69902C28.6355 4.61246 30.3875 6.36453 31.301 8.56978L33.5734 14.0558C34.4868 16.2611 34.4868 18.7389 33.5734 20.9442L31.301 26.4302C30.3875 28.6355 28.6355 30.3875 26.4302 31.301L20.9442 33.5734C18.7389 34.4868 16.2611 34.4868 14.0558 33.5734L8.56978 31.301C6.36453 30.3875 4.61246 28.6355 3.69902 26.4302L1.42661 20.9442C0.513168 18.7389 0.513168 16.2611 1.42661 14.0558L3.69902 8.56978C4.61246 6.36453 6.36453 4.61246 8.56978 3.69902L14.0558 1.42661Z" fill="#05044D" fill-opacity="0.8"/>
<path d="M14.0558 2.48716C16.261 1.57372 18.7388 1.57372 20.9441 2.48716L25.6802 4.44892C27.8854 5.36236 29.6375 7.11443 30.551 9.31969L32.5127 14.0558C33.4262 16.261 33.4262 18.7388 32.5127 20.9441L30.551 25.6802C29.6375 27.8855 27.8855 29.6375 25.6802 30.551L20.9441 32.5127C18.7388 33.4262 16.261 33.4262 14.0558 32.5127L9.31969 30.551C7.11444 29.6375 5.36237 27.8855 4.44892 25.6802L2.48716 20.9441C1.57371 18.7388 1.57372 16.261 2.48716 14.0558L4.44892 9.31969C5.36236 7.11444 7.11443 5.36237 9.31969 4.44892L14.0558 2.48716Z" fill="#E0EDF2"/>
<path d="M14.0558 2.48716C16.261 1.57372 18.7388 1.57372 20.9441 2.48716L25.6802 4.44892C27.8854 5.36236 29.6375 7.11443 30.551 9.31969L32.5127 14.0558C33.4262 16.261 33.4262 18.7388 32.5127 20.9441L30.551 25.6802C29.6375 27.8855 27.8855 29.6375 25.6802 30.551L20.9441 32.5127C18.7388 33.4262 16.261 33.4262 14.0558 32.5127L9.31969 30.551C7.11444 29.6375 5.36237 27.8855 4.44892 25.6802L2.48716 20.9441C1.57371 18.7388 1.57372 16.261 2.48716 14.0558L4.44892 9.31969C5.36236 7.11444 7.11443 5.36237 9.31969 4.44892L14.0558 2.48716Z" fill="#D0E2EA"/>
<path d="M14.0558 2.48716C16.261 1.57372 18.7388 1.57372 20.9441 2.48716L25.6802 4.44892C27.8854 5.36236 29.6375 7.11443 30.551 9.31969L32.5127 14.0558C33.4262 16.261 33.4262 18.7388 32.5127 20.9441L30.551 25.6802C29.6375 27.8855 27.8855 29.6375 25.6802 30.551L20.9441 32.5127C18.7388 33.4262 16.261 33.4262 14.0558 32.5127L9.31969 30.551C7.11444 29.6375 5.36237 27.8855 4.44892 25.6802L2.48716 20.9441C1.57371 18.7388 1.57372 16.261 2.48716 14.0558L4.44892 9.31969C5.36236 7.11444 7.11443 5.36237 9.31969 4.44892L14.0558 2.48716Z" fill="#DBEAFF"/>
<ellipse rx="0.226269" ry="0.286699" transform="matrix(0.993935 -0.109968 0.109498 0.993987 8.40888 11.9659)" fill="#05044D"/>
<path d="M9.42233 11.9013C9.04064 11.2953 7.61491 10.981 7.27812 11.9013C6.85152 14.0897 7.92924 17.0526 7.92924 17.0526C8.07518 17.4005 9.74788 17.8045 11.0277 17.2882" stroke="#05044D" stroke-width="0.5" stroke-linejoin="round"/>
<path d="M7.30242 11.8018C7.06751 10.9946 6.54175 11.0506 6.54175 11.0506" stroke="#05044D" stroke-width="0.5" stroke-linejoin="round"/>
<path d="M20.1266 9.79334C20.3093 10.1648 19.4414 10.5286 18.9846 10.606C18.5278 10.2345 17.8045 10.0642 17.5 10.0255C17.7284 9.79334 18.7567 9.57654 18.9846 9.56111C19.4668 9.52845 19.8982 9.52245 20.1266 9.79334Z" stroke="#05044D" stroke-width="0.5" stroke-linejoin="round"/>
<path d="M33.409 16.4393C32.3484 16.7045 28.2329 16.8983 27.3815 14.8703C26.53 12.8424 26.055 10.8223 25.7002 10.1552C26.6176 9.46045 27.7721 7.81059 26.282 6.63651C25.5211 6.08741 23.7406 7.09493 23.5 7.5M17.3922 33.6481C18.1372 31.9404 16.416 29.0546 15.396 27.6314C13.1342 25.4968 13.1342 22.9618 13.5333 21.2274C13.9324 19.493 13.0011 19.0927 12.0698 18.8259C9.30844 19.1874 8.21145 17.7585 7.94536 17.4917C7.81231 17.4917 7.43623 17.7039 7.03709 17.1703C6.07916 15.0356 6.34582 12.8713 6.61192 11.9818C6.52993 11.8174 6.45897 11.534 6.50003 11.3207L6.75737 10.7716C13.5333 4.78218 19.9195 6.28459 20.0526 6.15118C20.1856 6.01776 20.8509 5.08383 22.0483 5.35067C23.0062 5.56414 22.8022 6.32907 22.5805 6.68485L23.0681 7.15904M23.9017 8.6775C24.2009 8.84886 24.2009 8.84886 24.2009 9.34886" stroke="#05044D" stroke-width="0.5" stroke-linejoin="round"/>
<circle cx="19.0194" cy="10.0043" r="0.458878" fill="#05044D"/>
<circle cx="19.0194" cy="10.0043" r="0.458878" fill="#05044D"/>
<rect x="19.0908" y="9.54541" width="0.192472" height="0.212179" rx="0.0962359" fill="white"/>
<path d="M18.0303 8.79349C18.3355 8.64877 19.1336 8.28699 19.7625 8.62466" stroke="#05044D" stroke-width="0.5" stroke-linejoin="round"/>
<path d="M24.5 8.0001C25 7.50015 26.5 8 25.2343 9.00011" stroke="#05044D" stroke-width="0.5" stroke-linejoin="round"/>
<path d="M8.39973 11.7859C8.24983 11.8193 8.0524 11.9085 8.02515 12.2874C8.22946 12.1316 8.46783 12.1316 8.46783 12.1316" stroke="#05044D" stroke-width="0.5" stroke-linejoin="round"/>
<path d="M6.74301 11.3867C6.80238 11.4023 6.88056 11.4439 6.89136 11.6205C6.81044 11.5479 6.71604 11.5479 6.71604 11.5479" stroke="#05044D" stroke-width="0.5" stroke-linejoin="round"/>
<path opacity="0.6" d="M8.12094 12.0799C8.12574 12.0677 8.12611 12.055 8.12632 12.0424C8.12634 12.0414 8.12476 12.0206 8.12747 12.0202C8.13157 12.0198 8.13967 12.0465 8.14036 12.0488C8.14281 12.0568 8.14437 12.065 8.14587 12.0731C8.14627 12.0753 8.14582 12.0817 8.14786 12.0837C8.15051 12.0862 8.17483 12.0619 8.17624 12.0605C8.18443 12.0526 8.19776 12.0426 8.19826 12.0316C8.19837 12.0293 8.19809 12.032 8.19796 12.0326C8.19607 12.0421 8.19279 12.0514 8.19016 12.0608C8.18647 12.0739 8.18381 12.0872 8.18035 12.1003C8.18012 12.1012 8.17614 12.1208 8.17394 12.121C8.17334 12.121 8.17351 12.1201 8.17346 12.1196C8.17293 12.1155 8.17303 12.1113 8.17273 12.1071C8.17133 12.0879 8.16841 12.0689 8.16462 12.0499C8.16084 12.031 8.15628 12.0122 8.15053 11.9935C8.14718 11.9827 8.14412 11.9704 8.13824 11.9601C8.13646 11.957 8.13905 11.9669 8.13982 11.9702C8.14456 11.9909 8.14886 12.0116 8.1518 12.0325C8.154 12.0482 8.15579 12.0955 8.15579 12.0797C8.15579 12.0727 8.15766 12.0661 8.15912 12.0592C8.16082 12.0512 8.16248 12.0432 8.16432 12.0352C8.16478 12.0332 8.16526 12.0274 8.16626 12.0293C8.16816 12.0329 8.16815 12.0381 8.16837 12.0417C8.16933 12.0574 8.16855 12.0732 8.16729 12.0888C8.16708 12.0913 8.15951 12.1456 8.15555 12.1446C8.15347 12.1441 8.15151 12.1369 8.15131 12.1364C8.14809 12.1275 8.14574 12.1184 8.14399 12.1093M8.14399 12.1093C8.14218 12.0999 8.14163 12.0905 8.14163 12.081C8.14163 12.068 8.14186 12.1072 8.14091 12.1202C8.14028 12.1288 8.14022 12.1388 8.13679 12.1471C8.13578 12.1496 8.13186 12.1336 8.13183 12.1335C8.12772 12.1141 8.1265 12.0945 8.12639 12.0748C8.12637 12.0719 8.12459 12.0637 8.12663 12.0662C8.12988 12.07 8.12998 12.0787 8.13074 12.0829C8.13463 12.1043 8.13619 12.1258 8.13619 12.1474C8.13619 12.1493 8.13587 12.1548 8.13486 12.1531C8.13155 12.1474 8.13014 12.1408 8.12826 12.1348C8.12749 12.1324 8.12667 12.1299 8.12639 12.1274C8.12613 12.1251 8.1263 12.132 8.12614 12.1342C8.12515 12.1484 8.14819 12.0955 8.14399 12.1093ZM8.14399 12.1093C8.14149 12.1175 8.11188 12.1756 8.11029 12.1714C8.1068 12.1623 8.10592 12.1522 8.10376 12.1428C8.10311 12.14 8.10245 12.1372 8.10206 12.1344C8.10185 12.1329 8.10451 12.1407 8.1046 12.1411C8.10599 12.146 8.10729 12.151 8.10775 12.156C8.10835 12.1625 8.10671 12.1534 8.10666 12.1532C8.10484 12.1449 8.10114 12.1198 8.1046 12.1279" stroke="#05044D" stroke-width="0.5" stroke-linecap="round" stroke-linejoin="round"/>
<path d="M25.6075 15.3833C25.6075 15.3833 25.5883 17.4412 22.6338 17.6112" stroke="#05044D" stroke-width="0.5" stroke-linejoin="round"/>
<path d="M22.803 6.89398C23.5984 6.62884 24.9242 5.30321 26.2499 6.62893" stroke="#05044D" stroke-width="0.5"/>
</svg>
