<svg width="1846" height="1842" viewBox="0 0 1846 1842" fill="none" xmlns="http://www.w3.org/2000/svg">
<path d="M919.562 1.42088C921.764 0.510955 924.236 0.510959 926.438 1.42089L1572.21 268.331C1574.42 269.242 1576.17 270.993 1577.09 273.198L1844.57 917.549C1845.48 919.758 1845.48 922.242 1844.57 924.451L1577.09 1568.8C1576.17 1571.01 1574.42 1572.76 1572.21 1573.67L926.438 1840.58C924.236 1841.49 921.764 1841.49 919.562 1840.58L273.786 1573.67C271.58 1572.76 269.826 1571.01 268.911 1568.8L1.43237 924.451C0.515392 922.242 0.515388 919.758 1.43236 917.549L268.911 273.198C269.826 270.993 271.58 269.242 273.786 268.331L919.562 1.42088Z" fill="#0DADF1"/>
<path d="M919.562 1.42088C921.764 0.510955 924.236 0.510959 926.438 1.42089L1572.21 268.331C1574.42 269.242 1576.17 270.993 1577.09 273.198L1844.57 917.549C1845.48 919.758 1845.48 922.242 1844.57 924.451L1577.09 1568.8C1576.17 1571.01 1574.42 1572.76 1572.21 1573.67L926.438 1840.58C924.236 1841.49 921.764 1841.49 919.562 1840.58L273.786 1573.67C271.58 1572.76 269.826 1571.01 268.911 1568.8L1.43237 924.451C0.515392 922.242 0.515388 919.758 1.43236 917.549L268.911 273.198C269.826 270.993 271.58 269.242 273.786 268.331L919.562 1.42088Z" fill="#0DADF1"/>
<path d="M919.562 1.42088C921.764 0.510955 924.236 0.510959 926.438 1.42089L1572.21 268.331C1574.42 269.242 1576.17 270.993 1577.09 273.198L1844.57 917.549C1845.48 919.758 1845.48 922.242 1844.57 924.451L1577.09 1568.8C1576.17 1571.01 1574.42 1572.76 1572.21 1573.67L926.438 1840.58C924.236 1841.49 921.764 1841.49 919.562 1840.58L273.786 1573.67C271.58 1572.76 269.826 1571.01 268.911 1568.8L1.43237 924.451C0.515392 922.242 0.515388 919.758 1.43236 917.549L268.911 273.198C269.826 270.993 271.58 269.242 273.786 268.331L919.562 1.42088Z" fill="#007989"/>
<path d="M920.061 60.422C922.263 59.5114 924.737 59.5114 926.939 60.422L1530.64 310.049C1532.85 310.962 1534.6 312.713 1535.52 314.917L1785.57 917.551C1786.49 919.759 1786.49 922.241 1785.57 924.449L1535.52 1527.08C1534.6 1529.29 1532.85 1531.04 1530.64 1531.95L926.939 1781.58C924.737 1782.49 922.263 1782.49 920.061 1781.58L316.358 1531.95C314.152 1531.04 312.399 1529.29 311.485 1527.08L61.4312 924.449C60.515 922.241 60.5149 919.759 61.4312 917.551L311.485 314.917C312.399 312.713 314.152 310.962 316.358 310.049L920.061 60.422Z" fill="#E0EDF2"/>
<path d="M920.061 60.422C922.263 59.5114 924.737 59.5114 926.939 60.422L1530.64 310.049C1532.85 310.962 1534.6 312.713 1535.52 314.917L1785.57 917.551C1786.49 919.759 1786.49 922.241 1785.57 924.449L1535.52 1527.08C1534.6 1529.29 1532.85 1531.04 1530.64 1531.95L926.939 1781.58C924.737 1782.49 922.263 1782.49 920.061 1781.58L316.358 1531.95C314.152 1531.04 312.399 1529.29 311.485 1527.08L61.4312 924.449C60.515 922.241 60.5149 919.759 61.4312 917.551L311.485 314.917C312.399 312.713 314.152 310.962 316.358 310.049L920.061 60.422Z" fill="#D0E2EA"/>
<path d="M920.061 60.422C922.263 59.5114 924.737 59.5114 926.939 60.422L1530.64 310.049C1532.85 310.962 1534.6 312.713 1535.52 314.917L1785.57 917.551C1786.49 919.759 1786.49 922.241 1785.57 924.449L1535.52 1527.08C1534.6 1529.29 1532.85 1531.04 1530.64 1531.95L926.939 1781.58C924.737 1782.49 922.263 1782.49 920.061 1781.58L316.358 1531.95C314.152 1531.04 312.399 1529.29 311.485 1527.08L61.4312 924.449C60.515 922.241 60.5149 919.759 61.4312 917.551L311.485 314.917C312.399 312.713 314.152 310.962 316.358 310.049L920.061 60.422Z" fill="#BEEBFF"/>
<ellipse cx="464.436" cy="675.338" rx="11.7556" ry="14.8637" transform="rotate(-6.29993 464.436 675.338)" fill="#030303"/>
<path d="M517.094 671.981C497.263 640.563 423.188 624.272 405.69 671.981C383.526 785.437 439.52 939.038 439.52 939.038C447.102 957.074 534.008 978.02 600.5 951.256" stroke="black" stroke-width="13"/>
<path d="M406.949 666.83C394.743 624.983 367.427 627.889 367.427 627.889" stroke="black" stroke-width="13"/>
<path d="M1227 403.5C1254.89 382.741 1338.76 324.453 1400.5 387.033M923.5 562.402C942.093 564.709 986.251 574.857 1014.14 597C1042.03 592.387 1095.02 570.706 1083.86 548.563C1069.92 532.418 1043.58 532.776 1014.14 534.722C1000.23 535.642 937.445 548.563 923.5 562.402Z" stroke="black" stroke-width="13"/>
<path d="M1777 892C1721.7 910.445 1495.74 915.135 1451.5 810C1407.26 704.865 1382.58 600.14 1364.15 565.556C1411.82 529.536 1471.8 444.002 1394.38 383.134C1354.85 354.667 1266 404.5 1253.5 425.5M932.5 1783.5C971.21 1694.97 881.782 1545.36 828.786 1471.58C711.273 1360.91 711.273 1229.49 732.011 1139.57C752.748 1049.65 704.361 1028.9 655.973 1015.07C512.505 1033.81 455.51 959.734 441.685 945.9C434.773 945.9 415.233 956.904 394.496 929.237C344.725 818.568 358.58 706.364 372.405 660.252C368.145 651.727 364.459 637.037 366.592 625.976L379.962 597.509C732.011 287 1063.81 364.89 1070.72 357.973C1077.64 351.056 1112.2 302.639 1174.41 316.472C1224.18 327.539 1213.58 367.196 1202.06 385.64L1231 404.5M1286.25 470.859C1299.04 472.989 1319.39 490.031 1314.15 513.85" stroke="black" stroke-width="13"/>
<ellipse cx="1019.5" cy="564" rx="36" ry="33" fill="black"/>
<ellipse cx="1019.5" cy="564" rx="36" ry="33" fill="black"/>
<rect x="989.5" y="544" width="10" height="11" rx="4" fill="white"/>
<path d="M960.5 508C976.36 500.498 1017.82 481.742 1050.5 499.247" stroke="black" stroke-width="9"/>
<path d="M1278.5 431.783C1358.12 348.451 1474.96 431.782 1358.12 546" stroke="black" stroke-width="13"/>
<path d="M463.962 666C456.174 667.733 445.916 672.356 444.5 692C455.115 683.924 467.5 683.924 467.5 683.924" stroke="black" stroke-width="13"/>
<path d="M375.539 648C378.342 648.556 383.184 651.333 382.419 658C377.832 653.741 373.5 654.111 373.5 654.111" stroke="black" stroke-width="13"/>
<path d="M449.481 681.243C449.731 680.613 449.75 679.954 449.761 679.299C449.762 679.247 449.68 678.167 449.821 678.15C450.033 678.126 450.455 679.512 450.49 679.629C450.618 680.045 450.699 680.469 450.777 680.892C450.798 681.007 450.774 681.339 450.88 681.44C451.018 681.57 452.281 680.311 452.355 680.24C452.78 679.826 453.472 679.311 453.499 678.742C453.504 678.62 453.49 678.76 453.483 678.793C453.385 679.285 453.214 679.766 453.078 680.252C452.886 680.932 452.748 681.62 452.568 682.302C452.556 682.349 452.349 683.366 452.235 683.374C452.204 683.376 452.213 683.328 452.21 683.303C452.183 683.088 452.188 682.87 452.172 682.654C452.1 681.66 451.948 680.671 451.751 679.687C451.555 678.707 451.317 677.731 451.019 676.766C450.845 676.206 450.686 675.565 450.38 675.031C450.288 674.869 450.422 675.383 450.462 675.557C450.708 676.63 450.932 677.701 451.085 678.785C451.199 679.598 451.292 682.051 451.292 681.234C451.292 680.871 451.389 680.529 451.465 680.172C451.553 679.756 451.64 679.341 451.735 678.926C451.759 678.822 451.784 678.52 451.836 678.618C451.935 678.804 451.934 679.075 451.946 679.265C451.996 680.076 451.955 680.895 451.889 681.704C451.879 681.836 451.485 684.649 451.279 684.598C451.172 684.571 451.07 684.199 451.059 684.171C450.892 683.711 450.77 683.24 450.679 682.768M450.679 682.768C450.585 682.279 450.556 681.794 450.556 681.301C450.556 680.624 450.568 682.657 450.519 683.333C450.486 683.778 450.483 684.299 450.305 684.729C450.252 684.856 450.049 684.027 450.047 684.021C449.834 683.016 449.77 681.998 449.764 680.981C449.763 680.831 449.671 680.404 449.777 680.531C449.946 680.732 449.951 681.181 449.991 681.398C450.192 682.506 450.274 683.625 450.274 684.743C450.274 684.843 450.257 685.127 450.204 685.036C450.033 684.743 449.96 684.403 449.862 684.091C449.822 683.964 449.779 683.837 449.764 683.706C449.751 683.588 449.76 683.942 449.752 684.06C449.7 684.794 450.897 682.053 450.679 682.768ZM450.679 682.768C450.549 683.193 449.011 686.204 448.928 685.989C448.747 685.517 448.701 684.991 448.589 684.506C448.555 684.362 448.521 684.215 448.501 684.069C448.49 683.989 448.628 684.398 448.633 684.416C448.704 684.671 448.772 684.928 448.796 685.189C448.827 685.524 448.742 685.056 448.74 685.044C448.645 684.611 448.453 683.314 448.633 683.73" stroke="black" stroke-width="13" stroke-linecap="round"/>
<path d="M1358 852.5C1358 852.5 1357 959.185 1203.5 968" stroke="black" stroke-width="13"/>
</svg>
